# xmcd
#
# Track frame offsets:
# 150
# 12160
# 26622
# 39230
# 53137
# 76050
# 102017
# 130790
# 143850
# 162217
# 178510
# 197540
# 218637
# 240467
# 256455
# 273792
#
# Disc length: 3917 seconds
#
#
# Revision: 2
# Processed by: cddbd v1.5.2PL0 Copyright (c) Steve Scherf et al.
# Submitted via: FreeRIP 2.942 
#
DISCID=c30f4b10
DTITLE=Bruno e Marrone - Sonhos, Amores e Sucessos - Disco II
DYEAR=2006
DGENRE=Sertanejo
TTITLE0=Dormi na Praça
TTITLE1=Programa de Fim de Semana
TTITLE2=Feriado Nacional
TTITLE3=Amor de Carnaval
TTITLE4=Tenho Ciúme de Tudo, A Dama de Vermelho, Brigas
TTITLE5=Boate Azul, Sublime Renúncia, Meu Primeiro Amor
TTITLE6=Fruto Especial, Só Sei te Amar
TTITLE7=24 Horas de Amor
TTITLE8=Queremos Mais
TTITLE9=Esta Noite eu Queria que o Mundo Acabasse
TTITLE10=Vai dar Namoro
TTITLE11=Será
TTITLE12=Se Tiver Coragem Joga Fora
TTITLE13=Te Amar Foi Ilusão
TTITLE14=Apaziguar, Credo em Cruz Ave Maria, Pra Lá que eu Vou
TTITLE15=Bijuteria
EXTD=
EXTT0=
EXTT1=
EXTT2=
EXTT3=
EXTT4=
EXTT5=
EXTT6=
EXTT7=
EXTT8=
EXTT9=
EXTT10=
EXTT11=
EXTT12=
EXTT13=
EXTT14=
EXTT15=
PLAYORDER=
